<?xml version="1.0" encoding="utf-8"?>
<!-- Generator: Adobe Illustrator 15.1.0, SVG Export Plug-In . SVG Version: 6.00 Build 0)  -->
<!DOCTYPE svg PUBLIC "-//W3C//DTD SVG 1.1//EN" "http://www.w3.org/Graphics/SVG/1.1/DTD/svg11.dtd">
<svg version="1.1" id="Calque_1" xmlns="http://www.w3.org/2000/svg" xmlns:xlink="http://www.w3.org/1999/xlink" x="0px" y="0px"
	 width="497.434px" height="231.361px" viewBox="21.249 620.737 497.434 231.361"
	 enable-background="new 21.249 620.737 497.434 231.361" xml:space="preserve">
<g>
	<g>
		<path fill="#069851" d="M114.801-83.497L96.624-97.458C83.315-75.124,62.11-39.909,62.11-39.909s-1.651,5.844,3.176,5.967
			c2.192,0.059,10.819,0.064,19.576,0.053l0.005-0.082L114.801-83.497z"/>
		<path fill="#D54034" d="M161.152-128.792c-3.173-5.078-43.934-72.759-43.934-72.759s-4.7-6.094-11.812-6.601l-20.264-0.064
			l-0.179,0.064l66.538,109.959c0,0,0.048,0.014,0.133,0.033c6.17-10.367,10.659-17.936,10.659-17.936
			S164.327-123.712,161.152-128.792z"/>
		<path fill="#079250" d="M124.008-98.729l0.015,0.006c-7.521-12.465-16.454-27.084-16.454-27.084l-0.021,0.006
			c0.459,2.093,1.287,7.146-0.486,10.596c-0.675,1.313-4.864,8.402-10.438,17.749l18.177,13.961L124.008-98.729z"/>
		<path fill="#498CF3" d="M151.502-98.192L84.964-208.152l0.179-0.064l-20.111-0.063c0,0-5.717,1.522-2.921,6.476l45.203,75.042
			c0,0,0.102,0.357,0.234,0.959l0.021-0.006c0,0,8.933,14.621,16.454,27.084c4.422,7.332,8.359,13.918,9.703,16.342
			c3.62,6.537,1.203,12.222,1.203,12.222l-0.608,1.028c3.878-6.479,7.96-13.317,11.768-19.709c1.943-3.258,3.813-6.397,5.547-9.318
			C151.55-98.179,151.502-98.192,151.502-98.192z"/>
		<path fill="#F8C53C" d="M116.71-40.163c1.55-2.25,8.949-14.506,17.353-28.539l-19.262-14.795L84.867-33.972l-0.005,0.084
			c10.498-0.014,21.182-0.053,21.182-0.053S112.773-34.447,116.71-40.163z"/>
		<path fill="none" d="M134.066-68.702l0.255-0.43c-0.085,0.144-0.17,0.287-0.258,0.43H134.066z"/>
		<path fill="#DCAF37" d="M114.801-83.497l19.262,14.795c0.088-0.145,0.173-0.286,0.258-0.43l0.608-1.028
			c0,0,2.417-5.685-1.203-12.222c-1.344-2.424-5.281-9.01-9.703-16.342l-0.015-0.006L114.801-83.497z"/>
	</g>
	<g>
		<path d="M213.507-128.552h23.724v29.627c-6.442,2.205-13.522,3.309-21.243,3.309c-8.473,0-15.02-2.456-19.645-7.369
			c-4.625-4.912-6.938-11.918-6.938-21.017c0-8.873,2.531-15.778,7.596-20.716c5.063-4.938,12.155-7.407,21.279-7.407
			c3.459,0,6.725,0.325,9.794,0.978c3.07,0.652,5.746,1.479,8.026,2.481l-4.698,11.655c-3.961-1.955-8.31-2.934-13.047-2.934
			c-4.337,0-7.688,1.41-10.058,4.23c-2.369,2.818-3.554,6.849-3.554,12.087c0,5.139,1.071,9.055,3.216,11.75
			c2.143,2.694,5.23,4.042,9.268,4.042c2.205,0,4.234-0.213,6.091-0.639v-8.61h-9.813v-11.468H213.507z"/>
		<path d="M293.169-125.019c0,9.174-2.527,16.242-7.576,21.205c-5.051,4.963-12.15,7.444-21.299,7.444h-17.785v-54.968h19.024
			c8.822,0,15.634,2.256,20.435,6.768S293.169-133.54,293.169-125.019z M277.753-124.492c0-5.038-0.996-8.772-2.988-11.204
			c-1.993-2.431-5.021-3.646-9.08-3.646h-4.324v30.791h3.309c4.512,0,7.82-1.309,9.926-3.928
			C276.702-115.099,277.753-119.103,277.753-124.492z"/>
		<path d="M321.238-128.552h23.725v29.627c-6.441,2.205-13.521,3.309-21.242,3.309c-8.473,0-15.021-2.456-19.646-7.369
			c-4.624-4.912-6.937-11.918-6.937-21.017c0-8.873,2.531-15.778,7.595-20.716c5.063-4.938,12.155-7.407,21.28-7.407
			c3.459,0,6.724,0.325,9.793,0.978c3.07,0.652,5.746,1.479,8.027,2.481l-4.699,11.655c-3.961-1.955-8.31-2.934-13.047-2.934
			c-4.336,0-7.688,1.41-10.058,4.23c-2.368,2.818-3.554,6.849-3.554,12.087c0,5.139,1.072,9.055,3.216,11.75
			c2.144,2.694,5.231,4.042,9.269,4.042c2.204,0,4.234-0.213,6.09-0.639v-8.61h-9.813V-128.552z"/>
		<path d="M401.943-102.369h-9.887v-14.842h-11.43v14.842h-9.887v-36.407h9.887v13.497h11.43v-13.497h9.887V-102.369z"/>
		<path d="M409.041-137.604c0-1.461,0.406-2.549,1.221-3.263c0.813-0.713,2.125-1.071,3.935-1.071s3.129,0.365,3.96,1.096
			c0.829,0.732,1.244,1.811,1.244,3.238c0,2.854-1.734,4.282-5.204,4.282C410.759-133.322,409.041-134.75,409.041-137.604z
			 M419.027-102.369h-9.736v-28.214h9.736V-102.369z"/>
		<path d="M457.919-127.196c0,4.068-1.201,7.209-3.6,9.426s-5.807,3.324-10.223,3.324h-2.766v12.078h-9.836v-36.406h12.602
			c4.599,0,8.052,1.004,10.359,3.012C456.765-133.754,457.919-130.897,457.919-127.196z M441.333-122.466h1.793
			c1.478,0,2.651-0.414,3.523-1.244c0.871-0.83,1.309-1.977,1.309-3.438c0-2.457-1.363-3.686-4.084-3.686h-2.541V-122.466z"/>
		<path d="M462.949-137.604c0-1.461,0.406-2.549,1.221-3.263c0.813-0.713,2.125-1.071,3.934-1.071c1.811,0,3.129,0.365,3.961,1.096
			c0.828,0.732,1.244,1.811,1.244,3.238c0,2.854-1.734,4.282-5.205,4.282C464.667-133.322,462.949-134.75,462.949-137.604z
			 M472.935-102.369h-9.736v-28.214h9.736V-102.369z"/>
		<path d="M492.583-101.871c-4.617,0-8.115-1.245-10.498-3.735c-2.381-2.49-3.572-6.066-3.572-10.732
			c0-4.682,1.285-8.309,3.859-10.883c2.572-2.572,6.232-3.859,10.98-3.859c3.271,0,6.352,0.714,9.238,2.143l-2.863,7.196
			c-1.178-0.515-2.266-0.925-3.262-1.231c-0.996-0.308-2.033-0.461-3.113-0.461c-1.576,0-2.797,0.613-3.66,1.842
			c-0.863,1.229-1.295,2.964-1.295,5.205c0,4.517,1.668,6.773,5.006,6.773c2.855,0,5.596-0.83,8.219-2.49v7.746
			C499.115-102.701,496.101-101.871,492.583-101.871z"/>
	</g>
</g>
<g>
	<g>
		<path fill="#069851" d="M114.801,182.503l-18.177-13.961c-13.309,22.334-34.514,57.549-34.514,57.549s-1.651,5.844,3.176,5.967
			c2.192,0.059,10.819,0.064,19.576,0.053l0.005-0.082L114.801,182.503z"/>
		<path fill="#D54034" d="M161.152,137.208c-3.173-5.078-43.934-72.76-43.934-72.76s-4.7-6.094-11.812-6.6l-20.264-0.064
			l-0.179,0.064l66.538,109.959c0,0,0.048,0.014,0.133,0.033c6.17-10.367,10.659-17.936,10.659-17.936
			S164.327,142.288,161.152,137.208z"/>
		<path fill="#079250" d="M124.008,167.271l0.015,0.006c-7.521-12.465-16.454-27.084-16.454-27.084l-0.021,0.006
			c0.459,2.093,1.287,7.146-0.486,10.596c-0.675,1.313-4.864,8.402-10.438,17.749l18.177,13.961L124.008,167.271z"/>
		<path fill="#498CF3" d="M151.502,167.808L84.964,57.849l0.179-0.064l-20.111-0.063c0,0-5.717,1.522-2.921,6.476l45.203,75.043
			c0,0,0.102,0.357,0.234,0.959l0.021-0.006c0,0,8.933,14.621,16.454,27.084c4.422,7.332,8.359,13.918,9.703,16.342
			c3.62,6.537,1.203,12.222,1.203,12.222l-0.608,1.028c3.878-6.479,7.96-13.317,11.768-19.709c1.943-3.258,3.813-6.397,5.547-9.318
			C151.55,167.821,151.502,167.808,151.502,167.808z"/>
		<path fill="#F8C53C" d="M116.71,225.837c1.55-2.25,8.949-14.506,17.353-28.539l-19.262-14.795l-29.934,49.525l-0.005,0.084
			c10.498-0.014,21.182-0.053,21.182-0.053S112.773,231.553,116.71,225.837z"/>
		<path fill="none" d="M134.066,197.298l0.255-0.43c-0.085,0.144-0.17,0.287-0.258,0.43H134.066z"/>
		<path fill="#DCAF37" d="M114.801,182.503l19.262,14.795c0.088-0.145,0.173-0.286,0.258-0.43l0.608-1.028
			c0,0,2.417-5.685-1.203-12.222c-1.344-2.424-5.281-9.01-9.703-16.342l-0.015-0.006L114.801,182.503z"/>
	</g>
	<g>
		<path d="M213.507,137.448h23.724v29.627c-6.442,2.205-13.522,3.309-21.243,3.309c-8.473,0-15.02-2.456-19.645-7.369
			c-4.625-4.912-6.938-11.918-6.938-21.017c0-8.873,2.531-15.778,7.596-20.716c5.063-4.938,12.155-7.407,21.279-7.407
			c3.459,0,6.725,0.325,9.794,0.978c3.07,0.652,5.746,1.479,8.026,2.481l-4.698,11.655c-3.961-1.955-8.31-2.934-13.047-2.934
			c-4.337,0-7.688,1.41-10.058,4.23c-2.369,2.818-3.554,6.849-3.554,12.087c0,5.139,1.071,9.055,3.216,11.75
			c2.143,2.694,5.23,4.042,9.268,4.042c2.205,0,4.234-0.213,6.091-0.639v-8.61h-9.813v-11.468H213.507z"/>
		<path d="M293.169,140.981c0,9.174-2.527,16.242-7.576,21.205c-5.051,4.963-12.15,7.444-21.299,7.444h-17.785v-54.968h19.024
			c8.822,0,15.634,2.256,20.435,6.768S293.169,132.46,293.169,140.981z M277.753,141.508c0-5.038-0.996-8.772-2.988-11.204
			c-1.993-2.431-5.021-3.646-9.08-3.646h-4.324v30.791h3.309c4.512,0,7.82-1.309,9.926-3.928
			C276.702,150.901,277.753,146.897,277.753,141.508z"/>
		<path d="M321.238,137.448h23.725v29.627c-6.441,2.205-13.521,3.309-21.242,3.309c-8.473,0-15.021-2.456-19.646-7.369
			c-4.624-4.912-6.937-11.918-6.937-21.017c0-8.873,2.531-15.778,7.595-20.716c5.063-4.938,12.155-7.407,21.28-7.407
			c3.459,0,6.724,0.325,9.793,0.978c3.07,0.652,5.746,1.479,8.027,2.481l-4.699,11.655c-3.961-1.955-8.31-2.934-13.047-2.934
			c-4.336,0-7.688,1.41-10.058,4.23c-2.368,2.818-3.554,6.849-3.554,12.087c0,5.139,1.072,9.055,3.216,11.75
			c2.144,2.694,5.231,4.042,9.269,4.042c2.204,0,4.234-0.213,6.09-0.639v-8.61h-9.813V137.448z"/>
		<path d="M401.943,163.631h-9.887v-14.842h-11.43v14.842h-9.887v-36.407h9.887v13.497h11.43v-13.497h9.887V163.631z"/>
		<path d="M409.041,128.396c0-1.461,0.406-2.549,1.221-3.263c0.813-0.713,2.125-1.071,3.935-1.071s3.129,0.365,3.96,1.096
			c0.829,0.732,1.244,1.811,1.244,3.238c0,2.854-1.734,4.282-5.204,4.282C410.759,132.678,409.041,131.25,409.041,128.396z
			 M419.027,163.631h-9.736v-28.214h9.736V163.631z"/>
		<path d="M457.919,138.804c0,4.068-1.201,7.209-3.6,9.426s-5.807,3.324-10.223,3.324h-2.766v12.078h-9.836v-36.406h12.602
			c4.599,0,8.052,1.004,10.359,3.012C456.765,132.246,457.919,135.103,457.919,138.804z M441.333,143.534h1.793
			c1.478,0,2.651-0.414,3.523-1.244c0.871-0.83,1.309-1.977,1.309-3.438c0-2.457-1.363-3.686-4.084-3.686h-2.541V143.534z"/>
		<path d="M462.949,128.396c0-1.461,0.406-2.549,1.221-3.263c0.813-0.713,2.125-1.071,3.934-1.071c1.811,0,3.129,0.365,3.961,1.096
			c0.828,0.732,1.244,1.811,1.244,3.238c0,2.854-1.734,4.282-5.205,4.282C464.667,132.678,462.949,131.25,462.949,128.396z
			 M472.935,163.631h-9.736v-28.214h9.736V163.631z"/>
		<path d="M492.583,164.129c-4.617,0-8.115-1.245-10.498-3.735c-2.381-2.49-3.572-6.066-3.572-10.732
			c0-4.682,1.285-8.309,3.859-10.883c2.572-2.572,6.232-3.859,10.98-3.859c3.271,0,6.352,0.714,9.238,2.143l-2.863,7.196
			c-1.178-0.515-2.266-0.925-3.262-1.231c-0.996-0.308-2.033-0.461-3.113-0.461c-1.576,0-2.797,0.613-3.66,1.842
			c-0.863,1.229-1.295,2.964-1.295,5.205c0,4.517,1.668,6.773,5.006,6.773c2.855,0,5.596-0.83,8.219-2.49v7.746
			C499.115,163.299,496.101,164.129,492.583,164.129z"/>
	</g>
</g>
<g>
	<g>
		<path fill="#069851" d="M102.801,472.003l-18.178-13.961c-13.309,22.334-34.514,57.55-34.514,57.55s-1.65,5.842,3.176,5.967
			c2.192,0.058,10.819,0.063,19.576,0.053l0.005-0.084L102.801,472.003z"/>
		<path fill="#D54034" d="M149.15,426.708c-3.173-5.078-43.934-72.759-43.934-72.759s-4.7-6.094-11.813-6.602l-20.264-0.063
			l-0.18,0.063L139.5,457.309c0,0,0.047,0.012,0.133,0.033c6.17-10.367,10.658-17.938,10.658-17.938S152.326,431.788,149.15,426.708
			z"/>
		<path fill="#079250" d="M112.008,456.77l0.015,0.006c-7.521-12.463-16.454-27.082-16.454-27.082l-0.021,0.006
			c0.459,2.092,1.287,7.146-0.485,10.595c-0.675,1.312-4.864,8.401-10.438,17.749l18.178,13.961L112.008,456.77z"/>
		<path fill="#498CF3" d="M139.502,457.309L72.963,347.348l0.18-0.063l-20.111-0.063c0,0-5.717,1.522-2.921,6.477l45.203,75.043
			c0,0,0.103,0.357,0.233,0.959l0.021-0.006c0,0,8.934,14.619,16.454,27.082c4.422,7.334,8.358,13.92,9.703,16.344
			c3.62,6.537,1.202,12.221,1.202,12.221l-0.607,1.029c3.878-6.479,7.96-13.318,11.768-19.71c1.943-3.257,3.813-6.397,5.547-9.317
			C139.549,457.32,139.502,457.309,139.502,457.309z"/>
		<path fill="#F8C53C" d="M104.709,515.337c1.551-2.25,8.949-14.506,17.354-28.538l-19.262-14.796l-29.935,49.526l-0.005,0.082
			c10.498-0.012,21.182-0.053,21.182-0.053S100.772,521.053,104.709,515.337z"/>
		<path fill="none" d="M122.065,486.799l0.255-0.43c-0.085,0.143-0.17,0.285-0.258,0.43H122.065z"/>
		<path fill="#DCAF37" d="M102.801,472.003l19.262,14.796c0.088-0.145,0.173-0.287,0.258-0.43l0.607-1.029
			c0,0,2.418-5.684-1.202-12.221c-1.345-2.424-5.281-9.01-9.703-16.344l-0.015-0.006L102.801,472.003z"/>
	</g>
	<g>
		<path fill="#FFFFFF" d="M201.505,426.948h23.725v29.627c-6.441,2.206-13.521,3.31-21.242,3.31c-8.473,0-15.021-2.457-19.646-7.369
			c-4.623-4.914-6.936-11.918-6.936-21.018c0-8.873,2.531-15.777,7.594-20.716c5.064-4.938,12.156-7.407,21.281-7.407
			c3.459,0,6.723,0.326,9.793,0.979c3.07,0.651,5.746,1.479,8.027,2.48l-4.699,11.655c-3.961-1.955-8.311-2.933-13.047-2.933
			c-4.336,0-7.688,1.41-10.059,4.229c-2.367,2.819-3.553,6.849-3.553,12.087c0,5.139,1.072,9.055,3.215,11.75
			c2.145,2.693,5.232,4.042,9.27,4.042c2.205,0,4.234-0.213,6.09-0.64v-8.609h-9.813V426.948L201.505,426.948z"/>
		<path fill="#FFFFFF" d="M281.167,430.482c0,9.174-2.525,16.242-7.576,21.205s-12.148,7.443-21.299,7.443h-17.783v-54.967h19.023
			c8.822,0,15.635,2.256,20.436,6.768S281.167,421.96,281.167,430.482z M265.751,431.008c0-5.037-0.996-8.771-2.988-11.203
			s-5.02-3.647-9.078-3.647h-4.324v30.792h3.309c4.512,0,7.82-1.311,9.926-3.93S265.751,436.396,265.751,431.008z"/>
		<path fill="#FFFFFF" d="M309.238,426.948h23.725v29.627c-6.441,2.206-13.521,3.31-21.244,3.31c-8.471,0-15.02-2.457-19.645-7.369
			c-4.623-4.914-6.938-11.918-6.938-21.018c0-8.873,2.531-15.777,7.596-20.716c5.063-4.938,12.156-7.407,21.279-7.407
			c3.459,0,6.725,0.326,9.795,0.979c3.07,0.651,5.746,1.479,8.027,2.48l-4.699,11.655c-3.961-1.955-8.311-2.933-13.047-2.933
			c-4.338,0-7.688,1.41-10.059,4.229c-2.367,2.819-3.553,6.849-3.553,12.087c0,5.139,1.07,9.055,3.215,11.75
			c2.143,2.693,5.23,4.042,9.268,4.042c2.205,0,4.236-0.213,6.092-0.64v-8.609h-9.813V426.948L309.238,426.948z"/>
		<path fill="#FFFFFF" d="M389.941,453.131h-9.887v-14.842h-11.43v14.842h-9.887v-36.406h9.887v13.496h11.43v-13.496h9.887V453.131z
			"/>
		<path fill="#FFFFFF" d="M397.039,417.895c0-1.461,0.406-2.549,1.221-3.262c0.813-0.714,2.125-1.072,3.936-1.072
			c1.809,0,3.129,0.365,3.959,1.097s1.246,1.81,1.246,3.237c0,2.854-1.736,4.283-5.205,4.283
			C398.757,422.178,397.039,420.75,397.039,417.895z M407.025,453.131h-9.738v-28.214h9.738V453.131z"/>
		<path fill="#FFFFFF" d="M445.916,428.305c0,4.067-1.199,7.209-3.598,9.424c-2.398,2.217-5.807,3.326-10.223,3.326h-2.764v12.078
			h-9.838v-36.408h12.602c4.6,0,8.051,1.004,10.359,3.012C444.763,421.746,445.916,424.602,445.916,428.305z M429.332,433.035h1.793
			c1.479,0,2.652-0.415,3.523-1.245s1.307-1.976,1.307-3.437c0-2.457-1.361-3.687-4.084-3.687h-2.539V433.035z"/>
		<path fill="#FFFFFF" d="M450.947,417.895c0-1.461,0.406-2.549,1.221-3.262c0.813-0.714,2.125-1.072,3.934-1.072
			c1.811,0,3.129,0.365,3.959,1.097s1.246,1.81,1.246,3.237c0,2.854-1.734,4.283-5.205,4.283
			C452.666,422.178,450.947,420.75,450.947,417.895z M460.933,453.131h-9.736v-28.214h9.736V453.131z"/>
		<path fill="#FFFFFF" d="M480.58,453.629c-4.615,0-8.113-1.244-10.496-3.734c-2.381-2.49-3.572-6.067-3.572-10.733
			c0-4.683,1.285-8.31,3.859-10.882c2.572-2.573,6.232-3.86,10.98-3.86c3.271,0,6.352,0.714,9.24,2.142l-2.865,7.197
			c-1.178-0.514-2.266-0.925-3.262-1.232c-0.996-0.307-2.033-0.461-3.113-0.461c-1.576,0-2.797,0.615-3.66,1.844
			s-1.295,2.963-1.295,5.205c0,4.516,1.668,6.773,5.006,6.773c2.855,0,5.596-0.83,8.219-2.49v7.744
			C487.113,452.799,484.099,453.629,480.58,453.629z"/>
	</g>
</g>
<g>
	<g>
		<path fill="#797A7D" d="M149.15,728.708c-3.173-5.078-43.934-72.759-43.934-72.759s-4.7-6.094-11.813-6.602l-20.264-0.063
			l-0.18,0.063L139.5,759.309c0,0,0.047,0.012,0.133,0.033c6.17-10.367,10.658-17.938,10.658-17.938S152.326,733.788,149.15,728.708
			z"/>
		<path fill="#A9ABAE" d="M95.567,731.691l-0.021,0.007c0.459,2.092,1.287,7.146-0.486,10.595
			c-0.676,1.313-4.864,8.402-10.438,17.749c-13.31,22.334-34.515,57.55-34.515,57.55s-1.651,5.842,3.177,5.967
			c2.191,0.058,10.818,0.063,19.575,0.053l0.005-0.084l29.934-49.525l9.207-15.232l0.016,0.006
			C104.5,746.313,95.567,731.691,95.567,731.691z"/>
		<path fill="#97999C" d="M139.502,759.309L72.963,649.348l0.18-0.063l-20.111-0.063c0,0-5.717,1.522-2.921,6.477l45.203,75.043
			c0,0,0.103,0.357,0.233,0.959l0.021-0.006c0,0,8.934,14.619,16.454,27.082c4.422,7.334,8.358,13.92,9.703,16.344
			c3.62,6.537,1.202,12.221,1.202,12.221l-0.607,1.029c3.878-6.479,7.96-13.318,11.768-19.71c1.943-3.257,3.813-6.397,5.547-9.317
			C139.549,759.32,139.502,759.309,139.502,759.309z"/>
		<path fill="none" d="M122.065,788.799l0.255-0.43c-0.085,0.143-0.17,0.285-0.258,0.43H122.065z"/>
		<path fill="#CBCCCE" d="M121.726,775.119c-1.345-2.424-5.281-9.01-9.703-16.344l-0.015-0.006l-9.207,15.233l-29.935,49.526
			l-0.005,0.082c10.498-0.012,21.182-0.053,21.182-0.053s6.729-0.504,10.666-6.221c1.551-2.25,8.949-14.506,17.354-28.539
			c0.088-0.144,0.173-0.285,0.258-0.429l0.607-1.028C122.928,787.34,125.346,781.656,121.726,775.119z"/>
	</g>
	<g>
		<path d="M201.505,728.948h23.725v29.627c-6.441,2.206-13.521,3.31-21.242,3.31c-8.473,0-15.021-2.457-19.646-7.369
			c-4.623-4.914-6.936-11.918-6.936-21.018c0-8.873,2.531-15.777,7.594-20.716c5.064-4.938,12.156-7.407,21.281-7.407
			c3.459,0,6.723,0.326,9.793,0.979c3.07,0.651,5.746,1.479,8.027,2.48l-4.699,11.655c-3.961-1.955-8.311-2.933-13.047-2.933
			c-4.336,0-7.688,1.41-10.059,4.229c-2.367,2.819-3.553,6.849-3.553,12.087c0,5.139,1.072,9.055,3.215,11.75
			c2.145,2.693,5.232,4.042,9.27,4.042c2.205,0,4.234-0.213,6.09-0.64v-8.609h-9.813V728.948L201.505,728.948z"/>
		<path d="M281.167,732.482c0,9.174-2.525,16.242-7.576,21.205s-12.148,7.443-21.299,7.443h-17.783v-54.967h19.023
			c8.822,0,15.635,2.256,20.436,6.768S281.167,723.96,281.167,732.482z M265.751,733.008c0-5.037-0.996-8.771-2.988-11.203
			s-5.02-3.647-9.078-3.647h-4.324v30.792h3.309c4.512,0,7.82-1.311,9.926-3.93S265.751,738.396,265.751,733.008z"/>
		<path d="M309.238,728.948h23.725v29.627c-6.441,2.206-13.521,3.31-21.244,3.31c-8.471,0-15.02-2.457-19.645-7.369
			c-4.623-4.914-6.938-11.918-6.938-21.018c0-8.873,2.531-15.777,7.596-20.716c5.063-4.938,12.156-7.407,21.279-7.407
			c3.459,0,6.725,0.326,9.795,0.979c3.07,0.651,5.746,1.479,8.027,2.48l-4.699,11.655c-3.961-1.955-8.311-2.933-13.047-2.933
			c-4.338,0-7.688,1.41-10.059,4.229c-2.367,2.819-3.553,6.849-3.553,12.087c0,5.139,1.07,9.055,3.215,11.75
			c2.143,2.693,5.23,4.042,9.268,4.042c2.205,0,4.236-0.213,6.092-0.64v-8.609h-9.813V728.948L309.238,728.948z"/>
		<path d="M389.941,755.131h-9.887v-14.842h-11.43v14.842h-9.887v-36.406h9.887v13.496h11.43v-13.496h9.887V755.131z"/>
		<path d="M397.039,719.895c0-1.461,0.406-2.549,1.221-3.262c0.813-0.714,2.125-1.072,3.936-1.072c1.809,0,3.129,0.365,3.959,1.097
			s1.246,1.81,1.246,3.237c0,2.854-1.736,4.283-5.205,4.283C398.757,724.178,397.039,722.75,397.039,719.895z M407.025,755.131
			h-9.738v-28.214h9.738V755.131z"/>
		<path d="M445.916,730.305c0,4.067-1.199,7.209-3.598,9.424c-2.398,2.217-5.807,3.326-10.223,3.326h-2.764v12.078h-9.838v-36.408
			h12.602c4.6,0,8.051,1.004,10.359,3.012C444.763,723.746,445.916,726.602,445.916,730.305z M429.332,735.035h1.793
			c1.479,0,2.652-0.415,3.523-1.245s1.307-1.976,1.307-3.437c0-2.457-1.361-3.687-4.084-3.687h-2.539V735.035z"/>
		<path d="M450.947,719.895c0-1.461,0.406-2.549,1.221-3.262c0.813-0.714,2.125-1.072,3.934-1.072c1.811,0,3.129,0.365,3.959,1.097
			s1.246,1.81,1.246,3.237c0,2.854-1.734,4.283-5.205,4.283C452.666,724.178,450.947,722.75,450.947,719.895z M460.933,755.131
			h-9.736v-28.214h9.736V755.131z"/>
		<path d="M480.58,755.629c-4.615,0-8.113-1.244-10.496-3.734c-2.381-2.49-3.572-6.067-3.572-10.733
			c0-4.683,1.285-8.31,3.859-10.882c2.572-2.573,6.232-3.86,10.98-3.86c3.271,0,6.352,0.714,9.24,2.142l-2.865,7.197
			c-1.178-0.514-2.266-0.925-3.262-1.232c-0.996-0.307-2.033-0.461-3.113-0.461c-1.576,0-2.797,0.615-3.66,1.844
			s-1.295,2.963-1.295,5.205c0,4.516,1.668,6.773,5.006,6.773c2.855,0,5.596-0.83,8.219-2.49v7.744
			C487.113,754.799,484.099,755.629,480.58,755.629z"/>
	</g>
</g>
</svg>
